<?xml version="1.0" encoding="utf-8"?>
<!-- Generator: Adobe Illustrator 26.1.0, SVG Export Plug-In . SVG Version: 6.00 Build 0)  -->
<svg version="1.1" id="Layer_1" focusable="false" xmlns="http://www.w3.org/2000/svg" xmlns:xlink="http://www.w3.org/1999/xlink"
	 x="0px" y="0px" viewBox="0 0 25.4 43.6" style="enable-background:new 0 0 25.4 43.6;" xml:space="preserve">
<style type="text/css">
	.st0{fill:#FFFFFF;}
</style>
<polygon class="st0" points="19.8,13 24.7,10.1 24.6,40 19.7,42.8 "/>
<path class="st0" d="M9.3,1.2C8.5,0.7,7.6,0.6,6.7,1L1.8,3.8C2.6,3.4,3.6,3.5,4.3,4l15.5,9l4.9-2.9L9.3,1.2z"/>
<path d="M25.4,10.1c0-0.1,0-0.2-0.1-0.2c0-0.1,0-0.1,0-0.1c-0.1-0.1-0.2-0.2-0.3-0.3L9.7,0.6c-1-0.7-2.2-0.8-3.3-0.2L1.5,3.2
	C1.3,3.3,1.2,3.4,1.2,3.5C0.4,4.2,0,5.2,0.1,6.2L0,27.8c0.1,2.8,1.6,5.3,3.9,6.8l15.4,8.9c0.2,0.1,0.5,0.1,0.7,0l0,0l5-2.9
	c0.2-0.1,0.4-0.4,0.4-0.6V10.1L25.4,10.1z M7.1,1.6c0.6-0.2,1.3-0.1,1.8,0.2L23.2,10l-0.3,0.2L19.8,12l-15-8.7L4.4,3.2L7.1,1.6z
	 M20.4,41.5l0.1-28.1l1.3-0.8l2.1-1.2l-0.1,28.1L20.4,41.5z"/>
<polyline class="st0" points="6.5,14.2 6.5,25.8 15.2,25 6.5,14.2 "/>
</svg>
